# xmcd CD database file
# 
# Track frame offsets:
# 	150
# 	18133
# 	26260
# 	35982
# 	43655
# 	57068
# 	68831
# 	84193
# 	93460
# 	109469
# 	122445
# 	138776
# 	150886
# 	163725
# 	176879
# 	189218
# 	203181
# 	217139
# 	234335
# 	246205
# 
# Disc length: 3417 seconds
# 
# Submitted via: Nero 6, 0, 0, 28
# 
# Revision: 0
# Processed by: cddbd v1.4PL0 Copyright (c) Steve Scherf et al.
#
DISCID=050d5714
DTITLE=Various Artist - Country Roads Vol 7
DYEAR=1900
DGENRE=
TTITLE0=Crystal Gayle - Half The Way
TTITLE1=Johnny Cash - I Guess  Things Happen That Way
TTITLE2=Boxcar Willie - King Of The Road
TTITLE3=Roger Miller - Dang Me
TTITLE4=The Kendalls - Heartaches By The Number
TTITLE5=Ernest Tubbs and Willie Nelson - Waltz Across Texas
TTITLE6=Becky Hobbs - The Boots I Came To Town In
TTITLE7=Charley Pride - Kiss An Angel Good Morning
TTITLE8=Tammy Wynette and David Houston - My Elusive Dreams
TTITLE9=T. Graham Brown - Brilliant Conversationalist
TTITLE10=Charlie Rich - Big Boss Man
TTITLE11=Mickey Gilley - Make The World Go Away
TTITLE12=Slim Whitman - Red Sails In The Sunset
TTITLE13=Patti Page - Allegheny Moon
TTITLE14=Johnny Lee - Bet Your Heart On Me
TTITLE15=Lee Greenwood - L.O.U.
TTITLE16=George Jones - A Good Year For Roses
TTITLE17=Deborah Allen - Baby I Lied
TTITLE18=Jean Shepard and Ferlin Husky - Dear John Letter
TTITLE19=Leroy Van Dyke - Walk On Bye
EXTD=
EXTT0=
EXTT1=
EXTT2=
EXTT3=
EXTT4=
EXTT5=
EXTT6=
EXTT7=
EXTT8=
EXTT9=
EXTT10=
EXTT11=
EXTT12=
EXTT13=
EXTT14=
EXTT15=
EXTT16=
EXTT17=
EXTT18=
EXTT19=
PLAYORDER=
